<?xml version="1.0" encoding="UTF-8"?>
<svg id="Layer_1" xmlns="http://www.w3.org/2000/svg" xmlns:xlink="http://www.w3.org/1999/xlink" version="1.1" viewBox="0 0 400 200">
  <!-- Generator: Adobe Illustrator 29.2.1, SVG Export Plug-In . SVG Version: 2.1.0 Build 116)  -->
  <defs>
    <style>
      .st0 {
        fill: none;
      }

      .st1 {
        fill: #a6eddd;
      }

      .st2 {
        clip-path: url(#clippath);
      }
    </style>
    <clipPath id="clippath">
      <rect class="st0" x="8.6" y="76.7" width="42.8" height="42.8" transform="translate(128.1 68.1) rotate(90)"/>
    </clipPath>
  </defs>
  <g>
    <path d="M74,114.6v-32.9h6.6l12.3,16.3h-3.1l11.9-16.3h6.6v32.9h-6.8v-25.3l2.7.6-12.7,16.3h-.9l-12.2-16.3,2.3-.6v25.3h-6.8Z"/>
    <path d="M129.8,115.1c-2.4,0-4.5-.4-6.5-1.3-2-.9-3.8-2-5.3-3.6-1.5-1.5-2.7-3.3-3.5-5.4-.8-2.1-1.3-4.3-1.3-6.7s.4-4.7,1.2-6.8c.8-2.1,2-3.9,3.5-5.4,1.5-1.5,3.3-2.7,5.3-3.5,2-.8,4.2-1.3,6.6-1.3s4.5.4,6.4,1.2c1.9.8,3.5,1.9,4.8,3.2,1.3,1.3,2.3,2.8,2.8,4.4l-6,2.9c-.6-1.6-1.5-2.9-2.9-3.9-1.4-1-3.1-1.6-5.1-1.6s-3.6.5-5.1,1.4c-1.5.9-2.6,2.2-3.4,3.8-.8,1.6-1.2,3.5-1.2,5.6s.4,4,1.2,5.6c.8,1.6,1.9,2.9,3.4,3.8,1.5.9,3.2,1.4,5.1,1.4s3.7-.5,5.1-1.6c1.4-1,2.4-2.4,2.9-3.9l6,2.9c-.6,1.6-1.5,3.1-2.8,4.4-1.3,1.3-2.9,2.4-4.8,3.2-1.9.8-4,1.2-6.4,1.2Z"/>
    <path d="M148.2,114.6v-32.9h12.6c2.3,0,4.3.4,6,1.2,1.7.8,3.1,2,4.1,3.5,1,1.6,1.5,3.5,1.5,5.8s-.5,4.1-1.5,5.7c-1,1.6-2.4,2.7-4.1,3.5-1.7.8-3.7,1.2-6,1.2h-5.8v11.9h-6.8ZM155.1,96.7h5.8c1,0,1.8-.2,2.5-.6s1.3-.9,1.7-1.6c.4-.7.6-1.5.6-2.3s-.2-1.7-.6-2.4c-.4-.7-.9-1.2-1.7-1.6-.7-.4-1.5-.6-2.5-.6h-5.8v9Z"/>
  </g>
  <g>
    <path d="M181,114.6l12-32.9h3.8l12,32.9h-3.7l-2.8-8h-14.7l-2.9,8h-3.7ZM188.7,103.2h12.3l-6.7-18.9h1.1l-6.7,18.9Z"/>
    <path d="M212.7,114.6v-23.6h3.3v4.6l-.7-.2c.6-1.5,1.5-2.7,2.9-3.6s2.9-1.3,4.7-1.3,3.2.4,4.5,1.1,2.4,1.8,3.2,3.2c.8,1.3,1.2,2.8,1.2,4.5v15.3h-3.3v-14.1c0-1.4-.3-2.7-.8-3.7-.5-1-1.2-1.8-2.2-2.3-.9-.5-2-.8-3.2-.8s-2.3.3-3.2.8c-.9.5-1.7,1.3-2.2,2.3-.5,1-.8,2.2-.8,3.6v14.1h-3.3Z"/>
    <path d="M238,124.3c-.5,0-.9,0-1.4-.1-.5,0-1-.2-1.4-.4v-3.1c.3,0,.7,0,1.1.2.5,0,.9.1,1.4.1,1.4,0,2.5-.3,3.3-.9.8-.6,1.5-1.8,2.2-3.5l1.5-3.5v2.9c0,0-10.1-25-10.1-25h3.6l8.2,20.7h-.9l8.2-20.7h3.7l-10.8,26.6c-.5,1.1-1.1,2.2-1.8,3.3-.7,1-1.6,1.9-2.7,2.5-1.1.6-2.4.9-4,.9Z"/>
    <path d="M266.3,114.6l-8.1-23.6h3.7l6.7,20.7h-1.3l6.3-20.7h3.3l6.3,20.7h-1.3l6.7-20.7h3.7l-8.1,23.6h-3.3l-6.1-20.2h.9l-6.1,20.2h-3.3Z"/>
    <path d="M296.3,114.6v-33.4h3.3v14.3l-.7-.2c.6-1.5,1.5-2.7,2.9-3.6s2.9-1.3,4.7-1.3,3.2.4,4.5,1.1,2.4,1.8,3.2,3.2c.8,1.3,1.2,2.8,1.2,4.5v15.3h-3.3v-14.1c0-1.4-.3-2.7-.8-3.7-.5-1-1.3-1.8-2.2-2.3-.9-.5-2-.8-3.2-.8s-2.2.3-3.2.8c-.9.5-1.7,1.3-2.2,2.3-.5,1-.8,2.2-.8,3.6v14.1h-3.3Z"/>
    <path d="M332.3,115.1c-2.2,0-4.2-.5-6-1.6-1.8-1.1-3.2-2.5-4.2-4.4-1-1.9-1.5-4-1.5-6.4s.5-4.5,1.5-6.3c1-1.8,2.4-3.3,4.1-4.3,1.7-1.1,3.7-1.6,5.8-1.6s3.2.3,4.6.9,2.5,1.5,3.4,2.6c.9,1.1,1.7,2.3,2.2,3.6.5,1.3.8,2.7.8,4.1s0,.6,0,1c0,.4,0,.7-.1,1.1h-20v-3.1h18.1l-1.6,1.3c.3-1.6,0-3.1-.6-4.3-.6-1.3-1.5-2.3-2.7-3s-2.5-1.1-4-1.1-2.8.4-4.1,1.1c-1.2.8-2.2,1.8-2.9,3.2-.7,1.4-1,3-.8,4.9-.1,1.9.2,3.5.9,4.9.8,1.4,1.8,2.5,3.1,3.2,1.3.8,2.7,1.1,4.2,1.1s3.2-.4,4.4-1.2c1.2-.8,2.1-1.9,2.9-3.1l2.8,1.5c-.5,1.1-1.2,2-2.2,2.9-1,.9-2.1,1.6-3.5,2.2-1.3.5-2.8.8-4.4.8Z"/>
    <path d="M348.6,114.6v-23.6h3.3v3.9l-.4-.6c.6-1.1,1.4-2,2.5-2.6s2.5-1,4.1-1h1.5v3.3h-2.1c-1.7,0-3.1.5-4.1,1.6-1,1.1-1.5,2.6-1.5,4.5v14.6h-3.3Z"/>
    <path d="M374.3,115.1c-2.2,0-4.2-.5-6-1.6-1.8-1.1-3.2-2.5-4.2-4.4-1-1.9-1.5-4-1.5-6.4s.5-4.5,1.5-6.3c1-1.8,2.4-3.3,4.1-4.3,1.7-1.1,3.7-1.6,5.8-1.6s3.2.3,4.6.9,2.5,1.5,3.4,2.6c.9,1.1,1.7,2.3,2.2,3.6.5,1.3.8,2.7.8,4.1s0,.6,0,1c0,.4,0,.7-.1,1.1h-20v-3.1h18.1l-1.6,1.3c.3-1.6,0-3.1-.6-4.3-.6-1.3-1.5-2.3-2.7-3s-2.5-1.1-4-1.1-2.8.4-4.1,1.1c-1.2.8-2.2,1.8-2.9,3.2-.7,1.4-1,3-.8,4.9-.1,1.9.2,3.5.9,4.9.8,1.4,1.8,2.5,3.1,3.2,1.3.8,2.7,1.1,4.2,1.1s3.2-.4,4.4-1.2c1.2-.8,2.1-1.9,2.9-3.1l2.8,1.5c-.5,1.1-1.2,2-2.2,2.9-1,.9-2.1,1.6-3.5,2.2-1.3.5-2.8.8-4.4.8Z"/>
  </g>
  <g class="st2">
    <polygon class="st1" points="23.7 98.1 2.3 119.5 16.5 119.5 37.9 98.1 37.9 98.1 37.9 98.1 16.4 76.7 2.2 76.7 23.7 98.1"/>
    <polygon class="st1" points="41.2 98.1 19.8 119.5 34 119.5 55.4 98.1 55.4 98.1 55.4 98.1 33.9 76.7 19.7 76.7 41.2 98.1"/>
    <polygon class="st1" points="58.7 98.1 37.3 119.5 51.5 119.5 72.9 98.1 72.9 98.1 72.9 98.1 51.4 76.7 37.2 76.7 58.7 98.1"/>
    <polygon class="st1" points="-1 119.5 20.4 98.1 20.4 98.1 20.4 98.1 -1 76.7 -1 119.5 -1 119.5"/>
  </g>
</svg>